# xmcd
#
# Track frame offsets:
#	151
#	13834
#	26635
#	39197
#	55803
#	76302
#	96518
#	114153
#	133167
#	147226
#	163902
#	180546
#	198930
#	211115
#	226934
#	244545
#	267344
#	286199
#	300147
#
# Disc length: 4197 seconds
#
# Revision: 1
# Processed by: cddbd v1.5.2PL0 Copyright (c) Steve Scherf et al.
# Submitted via: audiograbber 1.83.01
#
DISCID=f7106313
DTITLE=Claude DEMET - L'oreile voit !
DYEAR=2004
DGENRE=
TTITLE0=Paupières fermées
TTITLE1=Je te salue Bernard Dimey
TTITLE2=Elle s'éveille
TTITLE3=Triangulaires
TTITLE4=Tous les amours
TTITLE5=L'oiseau
TTITLE6=La raison de vivre
TTITLE7=Quand est-ce que beau
TTITLE8=A force
TTITLE9=En veilleuse
TTITLE10=Tout simple
TTITLE11=Derrière les apparences
TTITLE12=L'oreille voit
TTITLE13=Utopies
TTITLE14=Gamins sauvages
TTITLE15=Ballade à "F"
TTITLE16=Eclairs de génie
TTITLE17=Y'en a qui
TTITLE18=Même si !!
EXTD=
EXTT0=
EXTT1=
EXTT2=
EXTT3=
EXTT4=
EXTT5=
EXTT6=
EXTT7=
EXTT8=
EXTT9=
EXTT10=
EXTT11=
EXTT12=
EXTT13=
EXTT14=
EXTT15=
EXTT16=
EXTT17=
EXTT18=
PLAYORDER=
